<?xml version="1.0" standalone="no"?>
<!DOCTYPE svg PUBLIC "-//W3C//DTD SVG 20010904//EN"
 "http://www.w3.org/TR/2001/REC-SVG-20010904/DTD/svg10.dtd">
<svg version="1.0" xmlns="http://www.w3.org/2000/svg"
 width="260.000000pt" height="260.000000pt" viewBox="0 0 260.000000 260.000000"
 preserveAspectRatio="xMidYMid meet">
<metadata>
Created by potrace 1.11, written by Peter Selinger 2001-2013
</metadata>
<g transform="translate(0.000000,260.000000) scale(0.100000,-0.100000)"
fill="#000000" stroke="none">
<path d="M2215 2553 c-16 -9 -32 -19 -35 -22 -3 -3 -39 -35 -80 -71 -41 -36
-89 -78 -107 -93 -153 -137 -552 -423 -579 -415 -14 3 -115 -11 -269 -37 -155
-27 -340 -72 -455 -112 -149 -51 -453 -206 -495 -253 -25 -28 -12 -85 29 -126
39 -39 120 -65 203 -66 241 -2 589 146 1032 440 63 42 122 78 130 80 9 1 89 5
178 7 l163 4 -39 -78 c-77 -151 -130 -289 -166 -426 -1 -6 -27 -17 -56 -24
-96 -24 -250 -116 -298 -177 -25 -32 -28 -89 -7 -139 29 -69 100 -102 381
-179 163 -45 336 -127 388 -186 21 -22 37 -47 37 -55 0 -26 -77 -101 -168
-163 -280 -192 -654 -311 -985 -313 -125 -1 -153 13 -143 73 4 22 20 69 36
105 17 36 30 67 30 69 0 11 -38 1 -55 -14 -37 -31 -93 -107 -100 -133 -15 -59
73 -165 164 -199 45 -18 70 -20 184 -16 73 3 155 9 182 14 28 6 69 13 92 17
165 24 431 125 630 238 83 47 182 127 209 167 67 100 3 235 -166 350 -117 79
-218 120 -440 180 -83 22 -165 47 -182 56 l-32 16 39 34 c50 43 137 89 224
119 l69 23 38 -40 c138 -141 468 -165 592 -42 38 38 40 63 7 119 -44 76 -143
102 -402 104 -132 1 -128 -5 -87 121 25 78 125 286 164 340 21 30 43 32 139 9
109 -25 60 61 -51 92 -36 9 -37 11 -24 32 7 12 72 117 145 232 130 209 145
243 119 277 -14 18 -125 78 -143 78 -5 -1 -23 -8 -40 -17z m-42 -250 c-116
-198 -188 -319 -195 -324 -7 -4 -237 -4 -257 0 -3 1 10 12 69 58 70 53 325
261 365 297 28 24 52 43 54 41 2 -2 -14 -35 -36 -72z m-938 -479 c-36 -28
-469 -240 -555 -274 -113 -43 -242 -69 -325 -64 -37 1 -69 5 -71 6 -7 8 135
94 221 134 170 80 401 156 570 188 44 8 100 19 125 24 53 10 63 6 35 -14z
m1049 -566 c94 -21 -112 -101 -249 -97 -79 3 -126 22 -149 60 -15 26 -16 33
-5 40 13 8 365 5 403 -3z"/>
</g>
</svg>
